<svg
    width="16"
    height="13"
    viewBox="0 0 16 13"
    fill="none"
    xmlns="http://www.w3.org/2000/svg"
>
    <path
        d="M14.1261 0.79248H2.5565C1.52373 0.79248 0.684204 1.61495 0.684204 2.62674V10.3735C0.684204 11.3853 1.52373 12.2078 2.5565 12.2078H14.1229C15.1557 12.2078 15.9952 11.3853 15.9952 10.3735V2.62985C15.9984 1.61805 15.1589 0.79248 14.1261 0.79248ZM15.143 10.3735C15.143 10.9228 14.6868 11.3698 14.1261 11.3698H2.5565C1.99576 11.3698 1.53957 10.9228 1.53957 10.3735V2.62985C1.53957 2.0805 1.99576 1.63357 2.5565 1.63357H14.1229C14.6837 1.63357 15.1398 2.0805 15.1398 2.62985V10.3735H15.143Z"
        fill="#999999"
    />
    <path
        d="M10.3403 6.40371L14.0849 3.11383C14.2591 2.95864 14.275 2.69483 14.1166 2.52103C13.9582 2.35032 13.6889 2.33481 13.5115 2.48999L8.34762 7.03065L7.34019 6.14921C7.33702 6.1461 7.33386 6.143 7.33386 6.1399C7.31168 6.11817 7.2895 6.09955 7.26416 6.08093L3.16475 2.48689C2.98734 2.3317 2.71806 2.34722 2.55966 2.52103C2.40126 2.69483 2.4171 2.95864 2.59451 3.11383L6.38345 6.43164L2.61035 9.89222C2.43928 10.0505 2.42977 10.3143 2.59134 10.485C2.67688 10.5719 2.79093 10.6185 2.90497 10.6185C3.00952 10.6185 3.11406 10.5812 3.19643 10.5067L7.02656 6.99651L8.06567 7.90588C8.14804 7.97726 8.24941 8.0114 8.35079 8.0114C8.45216 8.0114 8.55671 7.97416 8.63591 7.90278L9.70353 6.96547L13.5115 10.5099C13.5938 10.5874 13.7016 10.6247 13.8061 10.6247C13.9202 10.6247 14.031 10.5812 14.1166 10.4943C14.2781 10.3267 14.2718 10.0598 14.1007 9.90154L10.3403 6.40371Z"
        fill="#999999"
    />
</svg>