<svg
    width="16"
    height="15"
    viewBox="0 0 16 15"
    fill="none"
    xmlns="http://www.w3.org/2000/svg"
>
    <path
        d="M7.64483 0C4.55067 0 2.03345 2.46609 2.03345 5.4974C2.03345 6.88992 2.92906 8.85738 4.69551 11.3452C5.98666 13.1638 7.25654 14.5711 7.31004 14.6301L7.64483 15L7.97973 14.6301C8.03312 14.5711 9.303 13.1638 10.5943 11.3452C12.3606 8.85738 13.2563 6.88992 13.2563 5.4974C13.2563 2.46609 10.739 0 7.64483 0ZM9.86429 10.8373C8.99157 12.0673 8.10951 13.1259 7.64483 13.666C7.18131 13.1274 6.30252 12.0728 5.43039 10.8444C3.79371 8.53935 2.92859 6.69033 2.92859 5.4974C2.92859 2.94971 5.04432 0.876961 7.64483 0.876961C10.2455 0.876961 12.3611 2.94971 12.3611 5.4974C12.3611 6.68907 11.4977 8.53558 9.86429 10.8373Z"
        fill="#999999"
    />
    <path
        d="M7.64491 2.03174C5.81877 2.03174 4.33313 3.4872 4.33313 5.27625C4.33313 7.06531 5.81877 8.52088 7.64491 8.52088C9.47118 8.52088 10.9568 7.06531 10.9568 5.27625C10.9568 3.4872 9.47118 2.03174 7.64491 2.03174ZM7.64491 7.64392C6.31242 7.64392 5.22827 6.58179 5.22827 5.27625C5.22827 3.97083 6.31242 2.9087 7.64491 2.9087C8.97753 2.9087 10.0617 3.97083 10.0617 5.27625C10.0617 6.58179 8.97753 7.64392 7.64491 7.64392Z"
        fill="#999999"
    />
</svg>