<svg
    width="16"
    height="15"
    viewBox="0 0 16 15"
    fill="none"
    xmlns="http://www.w3.org/2000/svg"
>
    <g clip-path="url(#clip0_87_2518)">
        <path
            d="M15.5934 11.5717L12.4944 9.54695C12.1012 9.29208 11.574 9.37594 11.2832 9.73967L10.3805 10.8767C10.2645 11.0266 10.0536 11.0701 9.88582 10.9787L9.7141 10.886C9.14487 10.582 8.4366 10.2036 7.00957 8.80506C5.58254 7.40652 5.19549 6.71211 4.88522 6.15547L4.79106 5.98724C4.69655 5.82285 4.74008 5.61537 4.89311 5.50081L6.05299 4.6167C6.4241 4.33183 6.50983 3.81552 6.24997 3.43012L4.18329 0.394064C3.91697 0.00160313 3.38266 -0.116211 2.97037 0.126594L1.67448 0.889225C1.2673 1.12374 0.968572 1.50355 0.84093 1.94906C0.374282 3.61481 0.725336 6.48963 5.04802 10.725C8.48663 14.0935 11.0465 14.9994 12.806 14.9994C13.2109 15.0011 13.6143 14.9495 14.0052 14.8459C14.46 14.721 14.8478 14.4283 15.087 14.0293L15.8662 12.7605C16.1144 12.3565 15.9942 11.8327 15.5934 11.5717ZM15.4266 12.504L14.6491 13.7736C14.4774 14.0616 14.1985 14.2733 13.8709 14.3645C12.3013 14.7867 9.55898 14.437 5.40903 10.3713C1.25908 6.30568 0.902165 3.61932 1.33311 2.08131C1.42628 1.76003 1.64269 1.48647 1.93703 1.31792L3.23292 0.556286C3.41181 0.450833 3.64371 0.501949 3.75928 0.672256L4.88193 2.3235L5.82419 3.70805C5.93703 3.87522 5.89996 4.09928 5.73898 4.22298L4.57883 5.10709C4.22577 5.37157 4.12495 5.85012 4.34232 6.22993L4.43445 6.39391C4.76053 6.97982 5.16595 7.7087 6.64605 9.15851C8.12615 10.6083 8.86991 11.0055 9.4677 11.3249L9.63532 11.4154C10.023 11.6283 10.5115 11.5296 10.7814 11.1837L11.6839 10.0471C11.8102 9.8895 12.0388 9.85321 12.2095 9.96364L15.3082 11.9883C15.4822 12.1015 15.5344 12.3288 15.4266 12.504Z"
            fill="#999999"
        />
        <path
            d="M9.35999 2.50137C11.7544 2.50398 13.6948 4.40498 13.6975 6.75075C13.6975 6.88881 13.8117 7.0007 13.9526 7.0007C14.0935 7.0007 14.2077 6.88881 14.2077 6.75075C14.2048 4.12898 12.0361 2.00434 9.35999 2.00146C9.21908 2.00146 9.10486 2.11336 9.10486 2.25142C9.10486 2.38947 9.21908 2.50137 9.35999 2.50137Z"
            fill="#999999"
        />
        <path
            d="M9.35999 4.00088C10.9093 4.00267 12.1648 5.23266 12.1666 6.75048C12.1666 6.88854 12.2809 7.00044 12.4217 7.00044C12.5627 7.00044 12.6769 6.88854 12.6769 6.75048C12.6748 4.95667 11.191 3.50303 9.35999 3.50098C9.21908 3.50098 9.10486 3.61287 9.10486 3.75093C9.10486 3.88899 9.21908 4.00088 9.35999 4.00088Z"
            fill="#999999"
        />
        <path
            d="M9.35999 5.50088C10.0642 5.5017 10.6349 6.06078 10.6357 6.75071C10.6357 6.88876 10.75 7.00066 10.8909 7.00066C11.0318 7.00066 11.146 6.88876 11.146 6.75071C11.1449 5.78482 10.3459 5.00206 9.35999 5.00098C9.21908 5.00098 9.10486 5.11287 9.10486 5.25093C9.10486 5.38899 9.21908 5.50088 9.35999 5.50088Z"
            fill="#999999"
        />
    </g>
    <defs>
        <clipPath id="clip0_87_2518">
            <rect
                width="15.311"
                height="15"
                fill="white"
                transform="translate(0.684204)"
            />
        </clipPath>
    </defs>
</svg>